<svg xmlns="http://www.w3.org/2000/svg" width="130pt" height="130pt" viewBox="0 0 130 130"><g fill="#fff"><path d="M65 0C47.047 0 30.797 7.273 19.035 19.035S0 47.047 0 65c0 17.953 7.273 34.203 19.035 45.965S47.047 130 65 130c17.953 0 34.203-7.273 45.965-19.035S130 82.953 130 65c0-17.953-7.273-34.203-19.035-45.965S82.953 0 65 0zm0 122.105c-15.785 0-30.023-6.343-40.395-16.71C14.395 95.023 7.895 80.785 7.895 65c0-15.785 6.343-30.023 16.71-40.395C34.977 14.238 49.215 7.895 65 7.895c15.785 0 30.023 6.343 40.395 16.71 10.367 10.372 16.71 24.61 16.71 40.395 0 15.785-6.5 30.023-16.71 40.395-10.372 10.367-24.61 16.71-40.395 16.71zm0 0"/><path d="M116.586 56.504c-.219-.215-.219-.215-.434-.434-.648-.648-1.3-1.082-2.168-1.515-3.203-1.84-28.847-16.57-32.054-18.41 0 0-.215 0-.215-.22L49.437 17.302c-2.812-1.735-6.062-1.95-9.093-1.301-3.035.867-5.633 2.816-7.367 5.633-.649.867-.864 1.949-1.301 2.816-.215.649-.215 1.516-.43 2.383v75.59c0 3.25 1.297 6.281 3.465 8.45 2.168 2.163 5.2 3.464 8.445 3.464 1.086 0 2.383-.215 3.469-.648 1.082-.434 2.164-.868 3.031-1.52 2.121-1.227 12.735-7.363 31.84-18.406l.434-.219 32.054-18.41c.22 0 .22-.219.438-.219 2.598-1.73 4.547-4.332 5.195-7.144.867-3.036.434-6.286-1.3-9.098-.43-.434-1.083-1.3-1.731-2.168zm-8.016 9.316h-.215l-31.84 18.625-.218.22c-19.102 11.042-29.715 17.183-31.84 18.41-.215 0-.215.214-.434.214 0 0-.214 0-.214.219h-.22c-.214 0-.433-.219-.648-.219-.214-.215-.214-.434-.214-.648V27.48c.214-.22.43-.434.648-.434h.648c2.141 1.226 12.825 7.363 32.059 18.41l.215.219L108.57 64.3l.434.433v.653c0 .215-.215.433-.434.433zm0 0"/></g></svg>