<svg xmlns="http://www.w3.org/2000/svg" xmlns:xlink="http://www.w3.org/1999/xlink" version="1.1" x="0px" y="0px" viewBox="0 0 100 125" style="enable-background:new 0 0 100 100;" xml:space="preserve"><path d="M71.4,39.7c2.6-24-12.6-30.3-24.4-24.7c-8.6-3.2-21.3,8.3-17.9,24.1c-0.2,0.4-0.3,0.9-0.4,1.5c-0.2,2.1,0.1,4.8,1.1,6.8  c-0.1,6.5-0.1,12.8-0.8,17.4c0.6-0.2,1.1-0.3,1.7-0.5l1.7-0.4l1.2,1.3c4.4,4.5,9.6,8.7,13.3,11.4c0.3-1.2,0.6-2.6,0.9-4.1  c0.8,0.2,1.7,0.4,2.5,0.5c-0.9-0.8-1.4-1.3-1.1-2.2c1,0.6,2.1,0.9,3.3,0.8c0.2,1.8,0.5,3.5,0.8,5c3.7-2.8,9-6.9,13.4-11.5l1.2-1.3  l1.7,0.4c0.8,0.2,1.5,0.4,2.2,0.6C70.5,59,70.2,53.7,70,48.4c1.2-1.6,1.8-4,1.8-6.4C71.7,41.1,71.6,40.4,71.4,39.7z M52,59.6  c-0.6-0.2-1.3-0.5-2-0.5c-0.3,0-0.7,0.1-1,0.1c-2.6,0.6-3.8,3.1-2.4-2c0.7-0.3,1.5,0,2.4,0.2c0.3,0.1,0.6,0.1,1,0.1  c0.8,0,1.6-0.3,2.2-0.4c0.4-0.1,0.8-0.1,1.2,0.1C54.8,61.7,54,60.4,52,59.6z M66.5,48.8C66.5,48.8,66.5,48.8,66.5,48.8  c-0.1-2-0.1-2.3-0.1-2.4l-0.7,0.1l-0.7,0.1c0,0.1,0,0.6,0.1,2.9c0,0.3,0,0.5,0,0.7c-2,6.9-7.8,4.6-12.3,3.5c-1-0.2-1.9-0.4-2.7-0.4  c-0.4,0-0.8,0-1.2,0.1c-4.5,0.7-11.1,4.7-13.8-2.8c0-0.2,0-0.5,0-0.7l0-0.3c0,0,0,0,0,0c0-2.3,0.1-2.8,0.1-2.9l-0.7-0.1l-0.7-0.1  c0,0.1,0,0.4-0.1,2.4c0,0,0,0,0,0c-0.6,0-1.2-0.3-1.6-0.8c-1.3-1.5-1.9-4.7-1.7-7.1c3.9,0.8,9.1-1.2,13.7-8c0.7-1,1.4-2.2,2-3.4  c3.3,5.1,8.5,6.1,12.5,6.6c0.4,0,0.7,0.1,1,0.1c-0.3-0.2-0.5-0.4-0.7-0.6c-0.6-0.7-0.9-1.5-0.6-2.3c0.4,0.2,0.9,0.6,1.5,1.1  c3,2.6,7.9,8,10.1,8.9c0,0.6,0,1.3,0.1,1.9C69.4,47.1,68.4,48.8,66.5,48.8z"/><path d="M59,39.8h-2.6h-1c-1.8,0-3.3,1.3-3.7,2.9c-0.5-0.3-1.1-0.5-1.7-0.5s-1.2,0.2-1.7,0.5c-0.2-1-0.8-1.8-1.6-2.3  c-0.6-0.4-1.3-0.6-2.1-0.6H41c-2.1,0-3.8,1.7-3.8,3.8v2.4c0,2.1,1.7,3.8,3.8,3.8h3.6c1.6,0,3-1,3.5-2.4c0.2-0.4,0.2-0.8,0.2-1.3  v-0.6c0-0.9,0.7-1.7,1.6-1.7s1.6,0.7,1.6,1.7v0.6c0,1.4,0.7,2.6,1.8,3.2c0.6,0.3,1.2,0.5,1.9,0.5H59c2.1,0,3.8-1.7,3.8-3.8v-2.4  C62.7,41.4,61.1,39.8,59,39.8z M46.8,45.3v0.6c0,1.2-1,2.2-2.2,2.2H41c-1.2,0-2.2-1-2.2-2.2v-2.4c0-1.2,1-2.2,2.2-2.2h3.6  c1.2,0,2.2,1,2.2,2.2V45.3z M61.2,45.9c0,1.2-1,2.2-2.2,2.2h-3.6c-0.6,0-1.1-0.2-1.5-0.6c-0.4-0.4-0.7-1-0.7-1.6v-0.6v-1.8  c0-1.2,1-2.2,2.2-2.2h0.4H59c1.2,0,2.2,1,2.2,2.2V45.9z"/><path d="M72.4,68.2c-1.1-0.3-2.4-0.7-3.7-1c-5,5.2-11,9.9-14.9,12.7c-2.3,1.7-3.8,2.7-3.8,2.7s-1.6-1.1-4-2.8  c-3.8-2.8-9.6-7.3-14.6-12.4c-1.1,0.3-2.2,0.6-3.2,0.9C11,72.9,12.5,76.9,12.5,90h37.6h37.3C87.5,77,89.2,73,72.4,68.2z"/><text x="0" y="115" fill="#000000" font-size="5px" font-weight="bold" font-family="'Helvetica Neue', Helvetica, Arial-Unicode, Arial, Sans-serif">Created by kiddo</text><text x="0" y="120" fill="#000000" font-size="5px" font-weight="bold" font-family="'Helvetica Neue', Helvetica, Arial-Unicode, Arial, Sans-serif">from the Noun Project</text></svg>